<svg xmlns="http://www.w3.org/2000/svg" version="1.1" xmlns:xlink="http://www.w3.org/1999/xlink" xmlns:svgjs="http://svgjs.com/svgjs" width="1066.6667" height="1066.6667"><svg xmlns:dc="http://purl.org/dc/elements/1.1/" xmlns:cc="http://creativecommons.org/ns#" xmlns:rdf="http://www.w3.org/1999/02/22-rdf-syntax-ns#" xmlns:svg="http://www.w3.org/2000/svg" xmlns="http://www.w3.org/2000/svg" viewBox="0 0 1066.6667 1066.6667" height="1066.6667" width="1066.6667" xml:space="preserve" id="SvgjsSvg1053" version="1.1"><metadata id="SvgjsMetadata1052"><rdf:rdf><cc:work rdf:about=""><dc:format>image/svg+xml</dc:format><dc:type rdf:resource="http://purl.org/dc/dcmitype/StillImage"></dc:type></cc:work></rdf:rdf></metadata><defs id="SvgjsDefs1051"><clipPath id="SvgjsClipPath1050" clipPathUnits="userSpaceOnUse"><path id="SvgjsPath1049" d="m 298.9682,116.0732 h 32 v 402 h -32 z"></path></clipPath><clipPath id="SvgjsClipPath1048" clipPathUnits="userSpaceOnUse"><path id="SvgjsPath1047" d="M 468.0318,351.1756 H 800 v 332 H 468.0318 Z"></path></clipPath><clipPath id="SvgjsClipPath1046" clipPathUnits="userSpaceOnUse"><path id="SvgjsPath1045" d="m 583.0318,466.1756 h 102 v 102 h -102 z"></path></clipPath><clipPath id="SvgjsClipPath1044" clipPathUnits="userSpaceOnUse"><path id="SvgjsPath1043" d="m 0,351.1593 h 331.9682 v 332 H 0 Z"></path></clipPath><clipPath id="SvgjsClipPath1042" clipPathUnits="userSpaceOnUse"><path id="SvgjsPath1041" d="m 114.9682,466.1756 h 102 v 102 h -102 z"></path></clipPath><clipPath id="SvgjsClipPath1040" clipPathUnits="userSpaceOnUse"><path id="SvgjsPath1039" d="m 383.5,381.0589 h 32 v 302.2335 h -32 z"></path></clipPath><clipPath id="SvgjsClipPath1038" clipPathUnits="userSpaceOnUse"><path id="SvgjsPath1037" d="m 341.7341,530.9268 h 32 v 152 h -32 z"></path></clipPath><clipPath id="SvgjsClipPath1036" clipPathUnits="userSpaceOnUse"><path id="SvgjsPath1035" d="m 425.7659,531.9268 h 32 v 152 h -32 z"></path></clipPath><clipPath id="SvgjsClipPath1034" clipPathUnits="userSpaceOnUse"><path id="SvgjsPath1033" d="m 468.0318,116.0732 h 32 v 402 h -32 z"></path></clipPath></defs><g transform="matrix(1.3333333,0,0,-1.3333333,0,1066.6667)" id="SvgjsG1032"><g id="SvgjsG1031"></g><g id="SvgjsG1030"><g clip-path="url(#clipPath20)" id="SvgjsG1029"><path id="SvgjsPath1028" style="fill:#d5d5d5;fill-opacity:1;fill-rule:nonzero;stroke:none" d="m 299.9682,117.0732 h 30 v 400 h -30 z"></path></g></g><g id="SvgjsG1027"><g clip-path="url(#clipPath30)" id="SvgjsG1026"><path id="SvgjsPath1025" style="fill:#ffffff;fill-opacity:1;fill-rule:nonzero;stroke:none" d="m 740.0978,623.2417 c 58.5787,-58.5787 58.5787,-153.5534 0,-212.1321 -58.5786,-58.5786 -153.5533,-58.5786 -212.132,0 -58.5786,58.5787 -58.5786,153.5534 0,212.1321 58.5787,58.5786 153.5534,58.5786 212.132,0 z"></path><g transform="matrix(1,0,0,-1,484.0318,667.1756)" id="SvgjsG1024"><path id="SvgjsPath1023" style="fill:none;stroke:#000000;stroke-width:30;stroke-linecap:butt;stroke-linejoin:miter;stroke-miterlimit:4;stroke-dasharray:none;stroke-opacity:1" d="m 256.066,43.93398 c 58.5787,58.57862 58.5787,153.55342 0,212.13202 -58.5786,58.5787 -153.5534,58.5787 -212.13202,0 -58.57864,-58.5786 -58.57864,-153.5534 0,-212.13202 58.57862,-58.57864 153.55342,-58.57864 212.13202,0 z"></path></g></g></g><g id="SvgjsG1022"><g clip-path="url(#clipPath44)" id="SvgjsG1021"><path id="SvgjsPath1020" style="fill:#000000;fill-opacity:1;fill-rule:nonzero;stroke:none" d="m 669.3871,552.531 c 19.5263,-19.5262 19.5263,-51.1845 0,-70.7107 -19.5262,-19.5262 -51.1844,-19.5262 -70.7106,0 -19.5263,19.5262 -19.5263,51.1845 0,70.7107 19.5262,19.5262 51.1844,19.5262 70.7106,0 z"></path></g></g><g id="SvgjsG1019"><g clip-path="url(#clipPath54)" id="SvgjsG1018"><path id="SvgjsPath1017" style="fill:#ffffff;fill-opacity:1;fill-rule:nonzero;stroke:none" d="m 272.0342,623.2253 c 58.5786,-58.5787 58.5786,-153.5534 0,-212.1321 -58.5787,-58.5786 -153.5534,-58.5786 -212.13204,0 -58.578648,58.5787 -58.578648,153.5534 0,212.1321 58.57864,58.5786 153.55334,58.5786 212.13204,0 z"></path><g transform="matrix(1,0,0,-1,15.96817,667.1593)" id="SvgjsG1016"><path id="SvgjsPath1015" style="fill:none;stroke:#000000;stroke-width:30;stroke-linecap:butt;stroke-linejoin:miter;stroke-miterlimit:4;stroke-dasharray:none;stroke-opacity:1" d="m 256.066,43.93398 c 58.5787,58.57862 58.5787,153.55342 0,212.13202 -58.5786,58.5787 -153.5534,58.5787 -212.13202,0 -58.57864,-58.5786 -58.57864,-153.5534 0,-212.13202 58.57862,-58.57864 153.55342,-58.57864 212.13202,0 z"></path></g></g></g><g id="SvgjsG1014"><g clip-path="url(#clipPath68)" id="SvgjsG1013"><path id="SvgjsPath1012" style="fill:#000000;fill-opacity:1;fill-rule:nonzero;stroke:none" d="m 201.3235,552.531 c 19.5262,-19.5262 19.5262,-51.1845 0,-70.7107 -19.5262,-19.5262 -51.1844,-19.5262 -70.7107,0 -19.5262,19.5262 -19.5262,51.1845 0,70.7107 19.5263,19.5262 51.1845,19.5262 70.7107,0 z"></path></g></g><g id="SvgjsG1011"><g clip-path="url(#clipPath78)" id="SvgjsG1010"><path id="SvgjsPath1009" style="fill:#000000;fill-opacity:1;fill-rule:nonzero;stroke:none" d="m 384.5,382.0589 h 30 v 300.2335 h -30 z"></path></g></g><g id="SvgjsG1008"><g clip-path="url(#clipPath88)" id="SvgjsG1007"><path id="SvgjsPath1006" style="fill:#000000;fill-opacity:1;fill-rule:nonzero;stroke:none" d="m 342.7341,531.9268 h 30 v 150 h -30 z"></path></g></g><g id="SvgjsG1005"><g clip-path="url(#clipPath98)" id="SvgjsG1004"><path id="SvgjsPath1003" style="fill:#000000;fill-opacity:1;fill-rule:nonzero;stroke:none" d="m 426.7659,532.9268 h 30 v 150 h -30 z"></path></g></g><g id="SvgjsG1002"><g clip-path="url(#clipPath108)" id="SvgjsG1001"><path id="SvgjsPath1000" style="fill:#000000;fill-opacity:1;fill-rule:nonzero;stroke:none" d="m 469.0318,117.0732 h 30 v 400 h -30 z"></path></g></g></g></svg><style>@media (prefers-color-scheme: light) { :root { filter: none; } }
</style></svg>